<svg xmlns="http://www.w3.org/2000/svg" width="17.47" height="20.561" viewBox="0 0 17.47 20.561">
  <g id="_012" data-name="012" transform="translate(-39.201 0.25)">
    <g id="Group_28" data-name="Group 28" transform="translate(39.451)">
      <g id="Group_27" data-name="Group 27" transform="translate(0)">
        <path id="Path_472" data-name="Path 472" d="M53.935,2.485a8.485,8.485,0,0,0-14.484,6c0,4.585,4.335,8.4,6.664,10.447.324.285.6.531.826.739a1.462,1.462,0,0,0,1.99,0c.223-.208.5-.454.826-.739,2.329-2.049,6.664-5.862,6.664-10.447A8.429,8.429,0,0,0,53.935,2.485ZM48.98,18.049c-.331.291-.616.542-.852.762a.284.284,0,0,1-.386,0c-.235-.22-.521-.471-.852-.762-2.189-1.926-6.265-5.511-6.265-9.564a7.31,7.31,0,0,1,14.619,0C55.245,12.538,51.17,16.123,48.98,18.049Z" transform="translate(-39.451)" fill="#646d82" stroke="#646d82" stroke-width="0.5"/>
      </g>
    </g>
    <g id="Group_30" data-name="Group 30" transform="translate(44.197 4.425)">
      <g id="Group_29" data-name="Group 29" transform="translate(0)">
        <path id="Path_473" data-name="Path 473" d="M164.309,112.938a3.739,3.739,0,1,0,3.739,3.739A3.743,3.743,0,0,0,164.309,112.938Zm0,6.3a2.564,2.564,0,1,1,2.564-2.564A2.567,2.567,0,0,1,164.309,119.241Z" transform="translate(-160.57 -112.938)" fill="#646d82" stroke="#646d82" stroke-width="0.5"/>
      </g>
    </g>
  </g>
</svg>
