<?xml version="1.0" encoding="UTF-8" standalone="no"?>
<!-- Created with Inkscape (http://www.inkscape.org/) -->

<svg
   version="1.1"
   id="svg5865"
   xml:space="preserve"
   width="682.66669"
   height="682.66669"
   viewBox="0 0 682.66669 682.66669"
   xmlns="http://www.w3.org/2000/svg"
   xmlns:svg="http://www.w3.org/2000/svg"><defs
     id="defs5869"><clipPath
       clipPathUnits="userSpaceOnUse"
       id="clipPath5879"><path
         d="M 0,512 H 512 V 0 H 0 Z"
         id="path5877" /></clipPath></defs><g
     id="g5871"
     transform="matrix(1.3333333,0,0,-1.3333333,0,682.66667)"><g
       id="g5873"><g
         id="g5875"
         clip-path="url(#clipPath5879)"><g
           id="g5881"
           transform="translate(410.3848,378.6436)"><path
             d="m 0,0 c 0.891,-0.839 2.289,-0.814 3.185,0.021 3.191,2.974 7.511,4.797 12.237,4.784 9.691,-0.03 17.6,-7.988 17.463,-17.552 C 32.64,-29.839 8.048,-43.592 2.627,-46.418 1.967,-46.762 1.182,-46.77 0.515,-46.44 c -5.515,2.72 -30.599,16.074 -30.244,33.693 0.19,9.369 8.078,17.484 17.572,17.552 C -7.43,4.838 -3.161,2.98 0,0 Z"
             style="fill:none;stroke:#000000;stroke-width:15;stroke-linecap:round;stroke-linejoin:round;stroke-miterlimit:10;stroke-dasharray:none;stroke-opacity:1"
             id="path5883" /></g><g
           id="g5885"
           transform="translate(350.8721,418.041)"><path
             d="m 0,0 h 112.893 c 10.663,0 19.306,-8.645 19.306,-19.308 v -69.594 c 0,-10.664 -8.643,-19.308 -19.306,-19.308 H 89.052 c -2.815,0 -5.517,-1.106 -7.523,-3.08 l -16.651,-16.381 c -2.098,-2.064 -5.467,-2.052 -7.55,0.026 l -16.333,16.301 c -2.011,2.007 -4.735,3.134 -7.577,3.134 H 9.288 c -10.663,0 -19.308,8.644 -19.308,19.308 v 38.244"
             style="fill:none;stroke:#000000;stroke-width:15;stroke-linecap:round;stroke-linejoin:round;stroke-miterlimit:10;stroke-dasharray:none;stroke-opacity:1"
             id="path5887" /></g><g
           id="g5889"
           transform="translate(98.2476,378.6436)"><path
             d="m 0,0 c 0.891,-0.839 2.289,-0.814 3.185,0.021 3.191,2.974 7.511,4.797 12.237,4.784 9.692,-0.03 17.6,-7.988 17.463,-17.552 C 32.64,-29.839 8.048,-43.592 2.627,-46.418 1.967,-46.762 1.182,-46.77 0.515,-46.44 -5,-43.72 -30.083,-30.366 -29.728,-12.747 -29.539,-3.378 -21.651,4.737 -12.157,4.805 -7.43,4.838 -3.161,2.98 0,0 Z"
             style="fill:none;stroke:#000000;stroke-width:15;stroke-linecap:round;stroke-linejoin:round;stroke-miterlimit:10;stroke-dasharray:none;stroke-opacity:1"
             id="path5891" /></g><g
           id="g5893"
           transform="translate(170.9346,369.8086)"><path
             d="m 0,0 v -40.67 c 0,-10.664 -8.645,-19.308 -19.308,-19.308 h -23.84 c -2.815,0 -5.517,-1.106 -7.523,-3.08 l -16.65,-16.38 c -2.098,-2.065 -5.467,-2.052 -7.55,0.026 l -16.334,16.301 c -2.01,2.007 -4.735,3.133 -7.576,3.133 h -24.131 c -10.663,0 -19.307,8.644 -19.307,19.308 v 69.595 c 0,10.663 8.644,19.307 19.307,19.307 h 114.68"
             style="fill:none;stroke:#000000;stroke-width:15;stroke-linecap:round;stroke-linejoin:round;stroke-miterlimit:10;stroke-dasharray:none;stroke-opacity:1"
             id="path5895" /></g><g
           id="g5897"
           transform="translate(261.6826,504.5)"><path
             d="m 0,0 h 61.1 c 14.809,0 26.815,-12.006 26.815,-26.815 v -88.146 c 0,-14.81 -12.006,-26.816 -26.815,-26.816 H 29.123 c -4.578,0 -8.939,-1.951 -11.991,-5.362 L 0.389,-165.853 c -3.001,-3.354 -8.258,-3.333 -11.232,0.045 l -16.348,18.573 c -3.055,3.469 -7.454,5.458 -12.077,5.458 h -32.336 c -14.811,0 -26.816,12.006 -26.816,26.816 v 88.146 C -98.42,-12.006 -86.415,0 -71.604,0 H -35"
             style="fill:none;stroke:#000000;stroke-width:15;stroke-linecap:round;stroke-linejoin:round;stroke-miterlimit:10;stroke-dasharray:none;stroke-opacity:1"
             id="path5899" /></g><g
           id="g5901"
           transform="translate(254.0098,460.6719)"><path
             d="M 0,0 C 1.367,-1.288 3.512,-1.25 4.886,0.03 9.782,4.595 16.41,7.392 23.66,7.37 38.529,7.326 50.663,-4.883 50.452,-19.558 50.075,-45.778 12.347,-66.879 4.03,-71.214 c -1.012,-0.527 -2.217,-0.541 -3.24,-0.035 -8.461,4.174 -46.944,24.66 -46.399,51.691 0.29,14.375 12.392,26.826 26.958,26.928 C -11.399,7.422 -4.849,4.571 0,0 Z"
             style="fill:none;stroke:#000000;stroke-width:15;stroke-linecap:round;stroke-linejoin:round;stroke-miterlimit:10;stroke-dasharray:none;stroke-opacity:1"
             id="path5903" /></g><g
           id="g5905"
           transform="translate(78.9966,81.7617)"><path
             d="m 0,0 v 0 l -42.415,-17.478 c -9.375,-3.862 -15.492,-12.999 -15.492,-23.138 v -23.635 c 0,-5.529 4.482,-10.011 10.011,-10.011 H 78.267"
             style="fill:none;stroke:#000000;stroke-width:15;stroke-linecap:round;stroke-linejoin:round;stroke-miterlimit:10;stroke-dasharray:none;stroke-opacity:1"
             id="path5907" /></g><g
           id="g5909"
           transform="translate(159.6909,65.541)"><path
             d="m 0,0 -39.366,16.221 -0.007,-0.008"
             style="fill:none;stroke:#000000;stroke-width:15;stroke-linecap:round;stroke-linejoin:round;stroke-miterlimit:10;stroke-dasharray:none;stroke-opacity:1"
             id="path5911" /></g><g
           id="g5913"
           transform="translate(391.6748,104.0635)"><path
             d="M 0,0 V -22.302"
             style="fill:none;stroke:#000000;stroke-width:15;stroke-linecap:round;stroke-linejoin:round;stroke-miterlimit:10;stroke-dasharray:none;stroke-opacity:1"
             id="path5915" /></g><g
           id="g5917"
           transform="translate(433.0029,81.7617)"><path
             d="M 0,0 V 21.536"
             style="fill:none;stroke:#000000;stroke-width:15;stroke-linecap:round;stroke-linejoin:round;stroke-miterlimit:10;stroke-dasharray:none;stroke-opacity:1"
             id="path5919" /></g><g
           id="g5921"
           transform="translate(355.1875,7.5)"><path
             d="M 0,0 H 57.145 L 54.163,3.281 C 36.796,22.392 36.488,48.305 36.488,74.262 L -2.732,58.101"
             style="fill:none;stroke:#000000;stroke-width:15;stroke-linecap:round;stroke-linejoin:round;stroke-miterlimit:10;stroke-dasharray:none;stroke-opacity:1"
             id="path5923" /></g><g
           id="g5925"
           transform="translate(475.418,64.2842)"><path
             d="m 0,0 -42.414,17.478 c 0,-25.614 -0.277,-51.954 -17.829,-71.153 l -2.843,-3.109 H 5.482 c 5.529,0 10.01,4.482 10.01,10.01 v 23.636 C 15.492,-12.999 9.375,-3.862 0,0 Z"
             style="fill:none;stroke:#000000;stroke-width:15;stroke-linecap:round;stroke-linejoin:round;stroke-miterlimit:10;stroke-dasharray:none;stroke-opacity:1"
             id="path5927" /></g><g
           id="g5929"
           transform="translate(78.9966,113.043)"><path
             d="M 0,0 V -31.292 L 0.007,-31.3 c 10.896,-12.577 30.408,-12.58 41.308,-0.007 l 0.013,0.015 v 30.994"
             style="fill:none;stroke:#000000;stroke-width:15;stroke-linecap:round;stroke-linejoin:round;stroke-miterlimit:10;stroke-dasharray:none;stroke-opacity:1"
             id="path5931" /></g><g
           id="g5933"
           transform="translate(52.1499,158.6602)"><path
             d="m 0,0 c 5.238,-27.749 28.366,-53.98 47.504,-53.98 19.27,0 42.559,26.561 47.6,54.501"
             style="fill:none;stroke:#000000;stroke-width:15;stroke-linecap:round;stroke-linejoin:round;stroke-miterlimit:10;stroke-dasharray:none;stroke-opacity:1"
             id="path5935" /></g><g
           id="g5937"
           transform="translate(36.5815,64.2842)"><path
             d="M 0,0 42.415,-56.784"
             style="fill:none;stroke:#000000;stroke-width:15;stroke-linecap:round;stroke-linejoin:round;stroke-miterlimit:10;stroke-dasharray:none;stroke-opacity:1"
             id="path5939" /></g><g
           id="g5941"
           transform="translate(155.7666,48.6455)"><path
             d="M 0,0 -35.442,-41.146"
             style="fill:none;stroke:#000000;stroke-width:15;stroke-linecap:round;stroke-linejoin:round;stroke-miterlimit:10;stroke-dasharray:none;stroke-opacity:1"
             id="path5943" /></g><g
           id="g5945"
           transform="translate(42.48,208.417)"><path
             d="m 0,0 c -6.119,-20.295 -0.244,-44.254 5.758,-53.63 0,0 11.612,19.964 38.456,29.734 25.205,9.174 36.54,35.143 27.938,48.581 -7.711,12.046 -29.581,13.725 -49.629,2.543"
             style="fill:none;stroke:#000000;stroke-width:15;stroke-linecap:round;stroke-linejoin:round;stroke-miterlimit:10;stroke-dasharray:none;stroke-opacity:1"
             id="path5947" /></g><g
           id="g5949"
           transform="translate(117.4038,224.915)"><path
             d="m 0,0 c 9.019,3.913 23.911,4.26 33.448,-5.396 20.231,-20.487 7.469,-52.846 0.256,-64.116 0,0 -10.522,13.155 -26.38,23.306 -8.3,5.312 -14.175,12.602 -16.856,19.958"
             style="fill:none;stroke:#000000;stroke-width:15;stroke-linecap:round;stroke-linejoin:round;stroke-miterlimit:10;stroke-dasharray:none;stroke-opacity:1"
             id="path5951" /></g><g
           id="g5953"
           transform="translate(230.1987,137.5957)"><path
             d="m 0,0 v -36.562 l 0.008,-0.009 c 13.725,-15.841 38.3,-15.845 52.03,-0.009 l 0.016,0.018 V 0"
             style="fill:none;stroke:#000000;stroke-width:15;stroke-linecap:round;stroke-linejoin:round;stroke-miterlimit:10;stroke-dasharray:none;stroke-opacity:1"
             id="path5955" /></g><g
           id="g5957"
           transform="translate(216.2075,152.2715)"><path
             d="m 0,0 c 9.69,-13.342 23.128,-22.357 40.009,-22.357 36.167,0 56.717,41.945 58.283,78.586"
             style="fill:none;stroke:#000000;stroke-width:15;stroke-linecap:round;stroke-linejoin:round;stroke-miterlimit:10;stroke-dasharray:none;stroke-opacity:1"
             id="path5959" /></g><g
           id="g5961"
           transform="translate(198.6816,200.5811)"><path
             d="M 0,0 C 0.609,-5.569 1.638,-11.177 3.076,-16.666"
             style="fill:none;stroke:#000000;stroke-width:15;stroke-linecap:round;stroke-linejoin:round;stroke-miterlimit:10;stroke-dasharray:none;stroke-opacity:1"
             id="path5963" /></g><g
           id="g5965"
           transform="translate(230.1992,101.0342)"><path
             d="m 0,0 v 0 l -54.345,-22.393 c -11.25,-4.634 -18.591,-15.599 -18.591,-27.766 v -43.375 h 197.925 v 43.375 c 0,12.167 -7.342,23.132 -18.591,27.766 L 52.054,0 52.045,-0.01"
             style="fill:none;stroke:#000000;stroke-width:15;stroke-linecap:round;stroke-linejoin:round;stroke-miterlimit:10;stroke-dasharray:none;stroke-opacity:1"
             id="path5967" /></g><g
           id="g5969"
           transform="translate(366.1455,158.9141)"><path
             d="m 0,0 c 0.73,-29.626 25.832,-64.234 46.187,-64.234 20.67,0 46.203,35.644 46.203,65.55 0,23.147 -9.761,42.901 -28.038,50.65 L 64.35,51.962 V 51.961 C 59.188,28.403 40.732,10.037 17.149,4.99 L -0.017,1.316 Z"
             style="fill:none;stroke:#000000;stroke-width:15;stroke-linecap:round;stroke-linejoin:round;stroke-miterlimit:10;stroke-dasharray:none;stroke-opacity:1"
             id="path5971" /></g><g
           id="g5973"
           transform="translate(351.6719,209.416)"><path
             d="m 0,0 c -8.429,-12.021 -13.375,-26.662 -13.375,-42.459 v -89.083"
             style="fill:none;stroke:#000000;stroke-width:15;stroke-linecap:round;stroke-linejoin:round;stroke-miterlimit:10;stroke-dasharray:none;stroke-opacity:1"
             id="path5975" /></g><g
           id="g5977"
           transform="translate(486.3818,56.2666)"><path
             d="m 0,0 v 110.69 c 0,40.893 -33.15,74.043 -74.043,74.043 -12.171,0 -23.656,-2.936 -33.786,-8.14"
             style="fill:none;stroke:#000000;stroke-width:15;stroke-linecap:round;stroke-linejoin:round;stroke-miterlimit:10;stroke-dasharray:none;stroke-opacity:1"
             id="path5979" /></g><g
           id="g5981"
           transform="translate(202.9141,89.792)"><path
             d="m 0,0 0.323,-0.381 c 19.387,-22.82 30.866,-51.305 32.719,-81.191 l 0.044,-0.72"
             style="fill:none;stroke:#000000;stroke-width:15;stroke-linecap:round;stroke-linejoin:round;stroke-miterlimit:10;stroke-dasharray:none;stroke-opacity:1"
             id="path5983" /></g><g
           id="g5985"
           transform="translate(308.7451,89.1406)"><path
             d="m 0,0 v 0 c -19.239,-22.648 -30.692,-50.879 -32.671,-80.529 l -0.074,-1.112"
             style="fill:none;stroke:#000000;stroke-width:15;stroke-linecap:round;stroke-linejoin:round;stroke-miterlimit:10;stroke-dasharray:none;stroke-opacity:1"
             id="path5987" /></g><g
           id="g5989"
           transform="translate(316.4355,264.3428)"><path
             d="M 0,0 C -0.173,0.021 -0.347,0.042 -0.523,0.061 1.408,3.575 2.369,7.7 1.979,12.077 1.086,22.096 -7.03,30.201 -17.052,31.075 c -7.259,0.633 -13.832,-2.432 -18.052,-7.52 -1.439,12.717 -12.229,22.602 -25.332,22.602 -6.432,0 -12.304,-2.386 -16.79,-6.316 -3.836,5.045 -9.883,8.316 -16.71,8.316 -10.93,0 -19.902,-8.353 -20.9,-19.022 -16.151,-0.478 -29.1,-13.711 -29.1,-29.978 0,-7.867 3.033,-15.023 7.987,-20.374 0,0 -0.839,-10.748 1.013,-20.626 3,-16 17,-21 17,-21 0,16 20.83,11.616 24,26 0,0 5.238,-1 8,-1 15.961,0 29.487,10.391 34.206,24.773 4.405,-6.5 11.85,-10.773 20.294,-10.773 2.641,0 5.183,0.423 7.567,1.197 5.933,-21.197 21.933,-14.197 21.933,-33.197 10.057,4.542 15.904,20.029 18.77,30.346 C 20.134,-13.622 12.231,-1.517 0,0 Z"
             style="fill:none;stroke:#000000;stroke-width:15;stroke-linecap:round;stroke-linejoin:round;stroke-miterlimit:10;stroke-dasharray:none;stroke-opacity:1"
             id="path5991" /></g></g></g></g></svg>
