<svg xmlns="http://www.w3.org/2000/svg" xmlns:xlink="http://www.w3.org/1999/xlink" width="682.665" height="682.665" viewBox="0 0 682.665 682.665">
  <defs>
    <clipPath id="clip-path">
      <path id="path159" d="M0-682.665H682.665V0H0Z" fill="#1f1e1e"/>
    </clipPath>
  </defs>
  <g id="brand" transform="translate(0 -0.002)">
    <g id="g153" transform="translate(0 682.667)">
      <g id="g155">
        <g id="g157" clip-path="url(#clip-path)">
          <g id="g163" transform="translate(29.428 -198.805)">
            <path id="path165" d="M0,0,169.377,169.377a13.334,13.334,0,0,0,18.856,0l441.1-441.1a13.335,13.335,0,0,0,3.905-9.428V-450.527A13.333,13.333,0,0,0,619.9-463.86H450.527a13.335,13.335,0,0,0-9.428,3.905L0-18.856A13.334,13.334,0,0,0,0,0" fill="#1f1e1e"/>
          </g>
          <g id="g167" transform="translate(29.428 -198.805)">
            <path id="path169" d="M0,0,169.377,169.377a13.334,13.334,0,0,0,18.856,0l441.1-441.1a13.335,13.335,0,0,0,3.905-9.428V-450.527A13.333,13.333,0,0,0,619.9-463.86H450.527a13.335,13.335,0,0,0-9.428,3.905L0-18.856A13.334,13.334,0,0,0,0,0Z" fill="none" stroke="#fff" stroke-linecap="round" stroke-linejoin="round" stroke-miterlimit="10" stroke-width="40"/>
          </g>
          <g id="g171" transform="translate(375.525 -300.536)">
            <path id="path173" d="M0,0-45.775-102.09a2.4,2.4,0,0,1,3.141-3.149L59.205-59.205" fill="none" stroke="#fff" stroke-linecap="round" stroke-linejoin="round" stroke-miterlimit="10" stroke-width="40"/>
          </g>
          <g id="g175" transform="translate(369.638 -323.986)">
            <path id="path177" d="M0,0,41.784-41.784" fill="none" stroke="#fff" stroke-linecap="round" stroke-linejoin="round" stroke-miterlimit="10" stroke-width="40"/>
          </g>
          <g id="g179" transform="translate(472.798 -397.808)">
            <path id="path181" d="M0,0-74.849-74.849,49.035-52.175c2.295.417,2.635-1.252.987-2.9l-73.162-71.761" fill="none" stroke="#fff" stroke-linecap="round" stroke-linejoin="round" stroke-miterlimit="10" stroke-width="40"/>
          </g>
          <g id="g183" transform="translate(578.596 -578.596)">
            <path id="path185" d="M0,0C20.051,20.052,24.788,47.045,7.441,65.009c-5.775,5.98-20.907,21.227-20.907,21.227s-26.452-26.264-36.56-36.372c-8.3-8.3-36.359-36.252-36.359-36.252L-65.773-7C-46.408-26.363-20.052-20.051,0,0Z" fill="none" stroke="#fff" stroke-linecap="round" stroke-linejoin="round" stroke-miterlimit="10" stroke-width="40"/>
          </g>
          <g id="g187" transform="translate(191.105 -231.584)">
            <path id="path189" d="M0,0A24.4,24.4,0,0,1,0,34.511c-4.725,4.725-21.707,21.859-21.707,21.859L-39.037,39.037-56.293,21.783-34.511,0A24.4,24.4,0,0,1,0,0Z" fill="none" stroke="#fff" stroke-linecap="round" stroke-linejoin="round" stroke-miterlimit="10" stroke-width="40"/>
          </g>
          <g id="g191" transform="translate(235.299 -200.858)">
            <path id="path193" d="M0,0A28.545,28.545,0,0,1,0,40.369C-5.528,45.9-25.5,66.045-25.5,66.045L-45.772,45.772-65.956,25.587-40.369,0A28.545,28.545,0,0,1,0,0Z" fill="none" stroke="#fff" stroke-linecap="round" stroke-linejoin="round" stroke-miterlimit="10" stroke-width="40"/>
          </g>
          <g id="g195" transform="translate(270.926 -267.519)">
            <path id="path197" d="M0,0,67.292,4.291" fill="none" stroke="#fff" stroke-linecap="round" stroke-linejoin="round" stroke-miterlimit="10" stroke-width="40"/>
          </g>
          <g id="g199" transform="translate(222.685 -297.674)">
            <path id="path201" d="M0,0,74.989,74.989" fill="none" stroke="#fff" stroke-linecap="round" stroke-linejoin="round" stroke-miterlimit="10" stroke-width="40"/>
          </g>
          <g id="g203" transform="translate(282.717 -318.729)">
            <path id="path205" d="M0,0C10.764,10.764,10.052,28.927-1.1,40.081c-5.532,5.531-19.7,19.873-19.7,19.873s-14.239-14.06-19.664-19.485c-4.456-4.456-19.539-19.44-19.539-19.44L-40.081,1.1C-28.927-10.051-10.764-10.763,0,0Z" fill="none" stroke="#fff" stroke-linecap="round" stroke-linejoin="round" stroke-miterlimit="10" stroke-width="40"/>
          </g>
        </g>
      </g>
      <g id="g207">
        <g id="g209" clip-path="url(#clip-path)">
          <g id="g215" transform="translate(689.33 -129.198)">
            <path id="path217" d="M0,0A149.2,149.2,0,0,1,298.4,0,149.2,149.2,0,0,1,149.2,149.2,149.2,149.2,0,0,1,0,0" fill="#1f1e1e"/>
          </g>
          <g id="g219" transform="translate(689.33 -129.198)">
            <path id="path221" d="M0,0A149.2,149.2,0,0,1,298.4,0,149.2,149.2,0,0,1,149.2,149.2,149.2,149.2,0,0,1,0,0Z" fill="none" stroke="#fff" stroke-linecap="round" stroke-linejoin="round" stroke-miterlimit="10" stroke-width="40"/>
          </g>
        </g>
      </g>
    </g>
  </g>
</svg>
