<svg xmlns="http://www.w3.org/2000/svg" width="17.893" height="17.893" viewBox="0 0 17.893 17.893">
  <path id="categories_white" d="M14.873,8.431v5.01a1.431,1.431,0,0,1-1.431,1.431H8.431A1.431,1.431,0,0,1,7,13.441V8.431A1.431,1.431,0,0,1,8.431,7h5.01A1.431,1.431,0,0,1,14.873,8.431ZM23.461,7h-5.01A1.431,1.431,0,0,0,17.02,8.431v5.01a1.431,1.431,0,0,0,1.431,1.431h5.01a1.431,1.431,0,0,0,1.431-1.431V8.431A1.431,1.431,0,0,0,23.461,7ZM13.441,17.02H8.431A1.431,1.431,0,0,0,7,18.451v5.01a1.431,1.431,0,0,0,1.431,1.431h5.01a1.431,1.431,0,0,0,1.431-1.431v-5.01A1.431,1.431,0,0,0,13.441,17.02Zm7.515,0a3.936,3.936,0,1,0,3.936,3.936,3.936,3.936,0,0,0-3.936-3.936Z" transform="translate(-7 -7)" fill="#fff"/>
</svg>
