<svg xmlns="http://www.w3.org/2000/svg" width="19.021" height="19.823" viewBox="0 0 19.021 19.823">
  <g id="_33" data-name="33" transform="translate(-10.359 0.002)">
    <g id="Group_3004" data-name="Group 3004" transform="translate(10.359 -0.002)">
      <g id="Group_3003" data-name="Group 3003" transform="translate(0 0)">
        <path id="Path_614" data-name="Path 614" d="M28.463,10.166a.581.581,0,0,1,0-.513L29.2,8.14a1.721,1.721,0,0,0-.743-2.285l-1.487-.789a.581.581,0,0,1-.3-.415L26.38,2.993A1.721,1.721,0,0,0,24.436,1.58l-1.667.236a.581.581,0,0,1-.488-.159L21.071.487a1.721,1.721,0,0,0-2.4,0l-1.21,1.171a.581.581,0,0,1-.488.159L15.3,1.58a1.721,1.721,0,0,0-1.944,1.412l-.291,1.658a.581.581,0,0,1-.3.415l-1.487.789a1.721,1.721,0,0,0-.743,2.285l.739,1.512a.581.581,0,0,1,0,.513l-.739,1.512a1.721,1.721,0,0,0,.743,2.285l1.487.789a.581.581,0,0,1,.3.415l.291,1.658a1.72,1.72,0,0,0,1.7,1.43,1.768,1.768,0,0,0,.248-.017L16.97,18a.581.581,0,0,1,.488.159l1.21,1.17a1.721,1.721,0,0,0,2.4,0l1.21-1.17A.582.582,0,0,1,22.769,18l1.667.236a1.721,1.721,0,0,0,1.944-1.412l.291-1.658a.581.581,0,0,1,.3-.415l1.487-.789a1.721,1.721,0,0,0,.743-2.285Zm-10.88-5.4a2.1,2.1,0,1,1-2.1,2.1A2.1,2.1,0,0,1,17.583,4.765ZM16.5,14.087a.572.572,0,1,1-.808-.808l7.545-7.545a.572.572,0,1,1,.808.808Zm5.655.968a2.1,2.1,0,1,1,2.1-2.1A2.1,2.1,0,0,1,22.156,15.055Z" transform="translate(-10.359 0.002)" fill="#fff"/>
      </g>
    </g>
    <g id="Group_3006" data-name="Group 3006" transform="translate(21.203 12.006)">
      <g id="Group_3005" data-name="Group 3005">
        <path id="Path_615" data-name="Path 615" d="M291.4,310.141a.953.953,0,1,0,.953.953A.954.954,0,0,0,291.4,310.141Z" transform="translate(-290.452 -310.141)" fill="#fff"/>
      </g>
    </g>
    <g id="Group_3008" data-name="Group 3008" transform="translate(16.63 5.908)">
      <g id="Group_3007" data-name="Group 3007" transform="translate(0)">
        <path id="Path_616" data-name="Path 616" d="M173.286,152.646a.953.953,0,1,0,.953.953A.954.954,0,0,0,173.286,152.646Z" transform="translate(-172.333 -152.646)" fill="#fff"/>
      </g>
    </g>
  </g>
</svg>
