<svg xmlns="http://www.w3.org/2000/svg" width="510" height="325.581" viewBox="0 0 510 325.581">
  <path id="support-ticket" d="M496.616,258.148H503a8,8,0,0,0,8-8V167.777a22.039,22.039,0,0,0-22.014-22.014h-39.3v-30.54a22.039,22.039,0,0,0-22.014-22.014H23.014A22.041,22.041,0,0,0,1,115.224V197.6a8,8,0,0,0,8,8h6.383a24.129,24.129,0,0,1,0,48.257H9a8,8,0,0,0-8,8v82.371a22.038,22.038,0,0,0,22.014,22.014h39.3v30.539A22.038,22.038,0,0,0,84.326,418.79H488.985A22.038,22.038,0,0,0,511,396.776V314.4a8,8,0,0,0-8-8h-6.383a24.128,24.128,0,0,1,0-48.257ZM17,344.223v-74.4a40.129,40.129,0,0,0,0-80.193v-74.4a6.021,6.021,0,0,1,6.014-6.014h99.243v12.61a8,8,0,1,0,16,0V109.21H427.674a6.021,6.021,0,0,1,6.014,6.014v74.4a40.129,40.129,0,0,0,0,80.193v74.4a6.021,6.021,0,0,1-6.014,6.014H317.088V317.023c24.145-11.788,41.168-38.342,41.168-65.228,0-26.07-12.248-47.954-34.487-61.621a8,8,0,0,0-12.189,6.815V245.8l-25.608,14.785L260.364,245.8V196.99a8,8,0,0,0-12.189-6.815c-22.239,13.667-34.486,35.551-34.486,61.621,0,26.885,17.026,53.44,41.168,65.228v33.214h-116.6v-12.61a8,8,0,0,0-16,0v12.61H23.014A6.022,6.022,0,0,1,17,344.223Zm248.735-39.894c-20.886-8.052-36.045-30.145-36.045-52.534,0-17.507,6.614-29.772,14.675-38.217v36.839a8,8,0,0,0,4,6.928l33.608,19.4a8,8,0,0,0,8,0l33.608-19.4a8,8,0,0,0,4-6.928V213.578c8.061,8.445,14.675,20.71,14.675,38.217,0,22.388-15.159,44.481-36.046,52.534a8,8,0,0,0-5.122,7.464v38.444h-30.23V311.793a8,8,0,0,0-5.123-7.464ZM495,322.373v74.4a6.021,6.021,0,0,1-6.014,6.014H84.326a6.021,6.021,0,0,1-6.014-6.014V366.237H427.673a22.039,22.039,0,0,0,22.014-22.014V261.852a8,8,0,0,0-8-8H435.3a24.129,24.129,0,0,1,0-48.257h6.383a8,8,0,0,0,8-8V161.764h39.3A6.021,6.021,0,0,1,495,167.778v74.4a40.129,40.129,0,0,0,0,80.192ZM89,155.008H50.254a8,8,0,0,1,0-16H89a8,8,0,0,1,0,16Zm102.116,24.373H380.826a8,8,0,0,0,8-8V132.87a8,8,0,0,0-8-8H191.119a8,8,0,0,0-8,8v38.512A8,8,0,0,0,191.119,179.381Zm8-38.511H372.826v22.512H199.119ZM89,312.571H50.254a8,8,0,0,1,0-16H89a8,8,0,0,1,0,16ZM42.254,274.737a8,8,0,0,1,8-8H89a8,8,0,0,1,0,16H50.254A8,8,0,0,1,42.254,274.737Zm80-105.633v-20.61a8,8,0,0,1,16,0V169.1a8,8,0,0,1-16,0Zm0,47.283v-20.61a8,8,0,0,1,16,0v20.61a8,8,0,0,1-16,0Zm0,47.283V243.06a8,8,0,0,1,16,0v20.61a8,8,0,0,1-16,0Zm0,47.284v-20.61a8,8,0,0,1,16,0v20.61a8,8,0,0,1-16,0Z" transform="translate(-1 -93.209)" fill="#fff"/>
</svg>
